<svg xmlns="http://www.w3.org/2000/svg" viewBox="0 0 200 200">
  <defs>
    <linearGradient id="bg" x1="0%" y1="0%" x2="100%" y2="100%">
      <stop offset="0%" style="stop-color:#0f0f23"/>
      <stop offset="100%" style="stop-color:#1a1a3e"/>
    </linearGradient>
  </defs>
  <rect width="200" height="200" fill="url(#bg)"/>
  
  <!-- ブロック行 -->
  <rect x="20" y="30" width="35" height="15" rx="2" fill="#ff6b6b"/>
  <rect x="60" y="30" width="35" height="15" rx="2" fill="#ff6b6b"/>
  <rect x="100" y="30" width="35" height="15" rx="2" fill="#ff6b6b"/>
  <rect x="140" y="30" width="35" height="15" rx="2" fill="#ff6b6b"/>
  
  <rect x="20" y="50" width="35" height="15" rx="2" fill="#ff922b"/>
  <rect x="60" y="50" width="35" height="15" rx="2" fill="#ff922b"/>
  <rect x="100" y="50" width="35" height="15" rx="2" fill="#ff922b"/>
  <rect x="140" y="50" width="35" height="15" rx="2" fill="#ff922b"/>
  
  <rect x="20" y="70" width="35" height="15" rx="2" fill="#fcc419"/>
  <rect x="60" y="70" width="35" height="15" rx="2" fill="#fcc419"/>
  <rect x="100" y="70" width="35" height="15" rx="2" fill="#fcc419"/>
  <rect x="140" y="70" width="35" height="15" rx="2" fill="#fcc419"/>
  
  <rect x="20" y="90" width="35" height="15" rx="2" fill="#51cf66"/>
  <rect x="60" y="90" width="35" height="15" rx="2" fill="#51cf66"/>
  <rect x="100" y="90" width="35" height="15" rx="2" fill="#51cf66" opacity="0.3"/>
  <rect x="140" y="90" width="35" height="15" rx="2" fill="#51cf66" opacity="0.3"/>
  
  <!-- パワーアップアイテム -->
  <rect x="110" y="110" width="18" height="12" rx="2" fill="#9b5de5"/>
  <rect x="55" y="130" width="18" height="12" rx="2" fill="#00f5d4"/>
  
  <!-- ボール -->
  <circle cx="100" cy="140" r="8" fill="#ffffff"/>
  <circle cx="65" cy="145" r="6" fill="#ffffff" opacity="0.7"/>
  
  <!-- パドル -->
  <rect x="60" y="165" width="80" height="12" rx="6" fill="#4cc9f0"/>
  
  <!-- レーザービーム -->
  <rect x="98" y="120" width="4" height="45" fill="#ff0000" opacity="0.8"/>
</svg>
