<svg xmlns="http://www.w3.org/2000/svg" viewBox="0 0 200 200">
  <rect width="200" height="200" fill="#1a1a2e"/>
  <!-- Bricks -->
  <rect x="15" y="30" width="35" height="12" rx="2" fill="#ff6b6b"/>
  <rect x="55" y="30" width="35" height="12" rx="2" fill="#ffa94d"/>
  <rect x="95" y="30" width="35" height="12" rx="2" fill="#ffd43b"/>
  <rect x="135" y="30" width="35" height="12" rx="2" fill="#69db7c"/>
  <rect x="15" y="47" width="35" height="12" rx="2" fill="#4dabf7"/>
  <rect x="55" y="47" width="35" height="12" rx="2" fill="#cc5de8"/>
  <rect x="95" y="47" width="35" height="12" rx="2" fill="#ff6b6b"/>
  <rect x="135" y="47" width="35" height="12" rx="2" fill="#ffa94d"/>
  <rect x="15" y="64" width="35" height="12" rx="2" fill="#ffd43b"/>
  <rect x="55" y="64" width="35" height="12" rx="2" fill="#69db7c"/>
  <rect x="95" y="64" width="35" height="12" rx="2" fill="#4dabf7"/>
  <rect x="135" y="64" width="35" height="12" rx="2" fill="#cc5de8"/>
  <!-- Ball -->
  <circle cx="100" cy="120" r="10" fill="#e0e0e0"/>
  <circle cx="97" cy="117" r="3" fill="#fff" opacity="0.5"/>
  <!-- Paddle -->
  <rect x="60" y="165" width="80" height="12" rx="6" fill="#4cc9f0"/>
  <!-- Power-up -->
  <circle cx="150" cy="100" r="10" fill="#69db7c"/>
  <text x="150" y="104" text-anchor="middle" font-size="10" font-weight="bold" fill="#fff">W</text>
</svg>
