<svg xmlns="http://www.w3.org/2000/svg" width="640" height="360" viewBox="0 0 640 360" fill="none">
  <!-- Background gradient -->
  <defs>
    <linearGradient id="bg" x1="0%" y1="0%" x2="100%" y2="100%">
      <stop offset="0%" style="stop-color:#ff9a56"/>
      <stop offset="50%" style="stop-color:#ff6b6b"/>
      <stop offset="100%" style="stop-color:#ee5a9a"/>
    </linearGradient>
  </defs>
  <rect width="640" height="360" fill="url(#bg)"/>
  
  <!-- Target area -->
  <rect x="220" y="20" width="200" height="60" rx="16" fill="rgba(255,255,255,0.9)"/>
  <text x="260" y="58" fill="#333" font-family="sans-serif" font-size="18" font-weight="700">探せ：</text>
  <text x="350" y="62" font-size="36">🎯</text>
  
  <!-- Timer bar -->
  <rect x="60" y="90" width="520" height="24" rx="12" fill="rgba(0,0,0,0.2)"/>
  <rect x="60" y="90" width="380" height="24" rx="12" fill="#22c55e"/>
  <text x="320" y="107" text-anchor="middle" fill="white" font-family="monospace" font-size="12" font-weight="700">18.52</text>
  
  <!-- 8x8 grid of emojis -->
  <g transform="translate(60, 125)">
    <!-- Row 1 -->
    <rect x="0" y="0" width="60" height="40" rx="6" fill="rgba(255,255,255,0.9)"/><text x="30" y="30" text-anchor="middle" font-size="24">🎮</text>
    <rect x="65" y="0" width="60" height="40" rx="6" fill="rgba(255,255,255,0.9)"/><text x="95" y="30" text-anchor="middle" font-size="24">🎪</text>
    <rect x="130" y="0" width="60" height="40" rx="6" fill="rgba(255,255,255,0.9)"/><text x="160" y="30" text-anchor="middle" font-size="24">🎭</text>
    <rect x="195" y="0" width="60" height="40" rx="6" fill="rgba(255,255,255,0.9)"/><text x="225" y="30" text-anchor="middle" font-size="24">🎨</text>
    <rect x="260" y="0" width="60" height="40" rx="6" fill="rgba(255,255,255,0.9)"/><text x="290" y="30" text-anchor="middle" font-size="24">🎬</text>
    <rect x="325" y="0" width="60" height="40" rx="6" fill="rgba(255,255,255,0.9)"/><text x="355" y="30" text-anchor="middle" font-size="24">🎤</text>
    <rect x="390" y="0" width="60" height="40" rx="6" fill="rgba(255,255,255,0.9)"/><text x="420" y="30" text-anchor="middle" font-size="24">🎧</text>
    <rect x="455" y="0" width="60" height="40" rx="6" fill="rgba(255,255,255,0.9)"/><text x="485" y="30" text-anchor="middle" font-size="24">🎼</text>
    <!-- Row 2 -->
    <rect x="0" y="45" width="60" height="40" rx="6" fill="rgba(255,255,255,0.9)"/><text x="30" y="75" text-anchor="middle" font-size="24">🎹</text>
    <rect x="65" y="45" width="60" height="40" rx="6" fill="rgba(255,255,255,0.9)"/><text x="95" y="75" text-anchor="middle" font-size="24">🎸</text>
    <rect x="130" y="45" width="60" height="40" rx="6" fill="rgba(255,255,255,0.9)"/><text x="160" y="75" text-anchor="middle" font-size="24">🎺</text>
    <rect x="195" y="45" width="60" height="40" rx="6" fill="#4ade80"/><text x="225" y="75" text-anchor="middle" font-size="24">🎯</text>
    <rect x="260" y="45" width="60" height="40" rx="6" fill="rgba(255,255,255,0.9)"/><text x="290" y="75" text-anchor="middle" font-size="24">🎻</text>
    <rect x="325" y="45" width="60" height="40" rx="6" fill="rgba(255,255,255,0.9)"/><text x="355" y="75" text-anchor="middle" font-size="24">🪗</text>
    <rect x="390" y="45" width="60" height="40" rx="6" fill="rgba(255,255,255,0.9)"/><text x="420" y="75" text-anchor="middle" font-size="24">🥁</text>
    <rect x="455" y="45" width="60" height="40" rx="6" fill="rgba(255,255,255,0.9)"/><text x="485" y="75" text-anchor="middle" font-size="24">🎲</text>
    <!-- Row 3 -->
    <rect x="0" y="90" width="60" height="40" rx="6" fill="rgba(255,255,255,0.9)"/><text x="30" y="120" text-anchor="middle" font-size="24">🎰</text>
    <rect x="65" y="90" width="60" height="40" rx="6" fill="rgba(255,255,255,0.9)"/><text x="95" y="120" text-anchor="middle" font-size="24">🎳</text>
    <rect x="130" y="90" width="60" height="40" rx="6" fill="rgba(255,255,255,0.9)"/><text x="160" y="120" text-anchor="middle" font-size="24">🏆</text>
    <rect x="195" y="90" width="60" height="40" rx="6" fill="rgba(255,255,255,0.9)"/><text x="225" y="120" text-anchor="middle" font-size="24">🏅</text>
    <rect x="260" y="90" width="60" height="40" rx="6" fill="rgba(255,255,255,0.9)"/><text x="290" y="120" text-anchor="middle" font-size="24">🥇</text>
    <rect x="325" y="90" width="60" height="40" rx="6" fill="rgba(255,255,255,0.9)"/><text x="355" y="120" text-anchor="middle" font-size="24">🥈</text>
    <rect x="390" y="90" width="60" height="40" rx="6" fill="rgba(255,255,255,0.9)"/><text x="420" y="120" text-anchor="middle" font-size="24">🥉</text>
    <rect x="455" y="90" width="60" height="40" rx="6" fill="rgba(255,255,255,0.9)"/><text x="485" y="120" text-anchor="middle" font-size="24">⚽</text>
    <!-- Row 4 -->
    <rect x="0" y="135" width="60" height="40" rx="6" fill="rgba(255,255,255,0.9)"/><text x="30" y="165" text-anchor="middle" font-size="24">🏀</text>
    <rect x="65" y="135" width="60" height="40" rx="6" fill="rgba(255,255,255,0.9)"/><text x="95" y="165" text-anchor="middle" font-size="24">🏈</text>
    <rect x="130" y="135" width="60" height="40" rx="6" fill="rgba(255,255,255,0.9)"/><text x="160" y="165" text-anchor="middle" font-size="24">⚾</text>
    <rect x="195" y="135" width="60" height="40" rx="6" fill="rgba(255,255,255,0.9)"/><text x="225" y="165" text-anchor="middle" font-size="24">🎾</text>
    <rect x="260" y="135" width="60" height="40" rx="6" fill="rgba(255,255,255,0.9)"/><text x="290" y="165" text-anchor="middle" font-size="24">🏐</text>
    <rect x="325" y="135" width="60" height="40" rx="6" fill="rgba(255,255,255,0.9)"/><text x="355" y="165" text-anchor="middle" font-size="24">🏉</text>
    <rect x="390" y="135" width="60" height="40" rx="6" fill="rgba(255,255,255,0.9)"/><text x="420" y="165" text-anchor="middle" font-size="24">🎱</text>
    <rect x="455" y="135" width="60" height="40" rx="6" fill="rgba(255,255,255,0.9)"/><text x="485" y="165" text-anchor="middle" font-size="24">🏓</text>
  </g>
  
  <!-- Level/Score -->
  <rect x="60" y="315" width="80" height="30" rx="15" fill="rgba(255,255,255,0.2)"/>
  <text x="100" y="336" text-anchor="middle" fill="white" font-family="sans-serif" font-size="14" font-weight="700">Lv.5</text>
  <rect x="150" y="315" width="120" height="30" rx="15" fill="rgba(255,255,255,0.2)"/>
  <text x="210" y="336" text-anchor="middle" fill="white" font-family="sans-serif" font-size="14" font-weight="700">Score: 1250</text>
  
  <!-- Title -->
  <text x="500" y="338" fill="white" font-family="sans-serif" font-size="24" font-weight="700">🔍 Emoji Match</text>
</svg>
